<svg xmlns="http://www.w3.org/2000/svg" width="343.123" height="362.344" viewBox="0 0 343.123 362.344"><path fill="current" d="M209.37,274.414c33.245-.415,61.14-25.638,76.067-53.7,10.811-20.311,16.087-43.3,16.16-66.3v-1.087a153.208,153.208,0,0,0-3.955-33.989c-10.85-46.66-43.456-82.263-85.455-85.461-16.782-1.283-32.757,3.394-47.819,12.939-14.216,9.018-28.45,4.56-38.291-11.108a99.934,99.934,0,0,0-13.1-16.989C100.405,6.01,86.245.1,70.83,0h-.79a67.094,67.094,0,0,0-9.59.773c-13.415,2.033-24.747,9.64-34.7,20.664C5.287,44.083-3.731,79.585,1.422,109.7a83.4,83.4,0,0,0,20.9,42.52A72.3,72.3,0,0,0,33.944,162.29c19.9,13.791,46.615,14.032,68.5,23.918,19.549,9.774,31.749,28.909,42.851,46.957,14.418,23.448,33.519,40.9,62.411,41.249Z" transform="matrix(0.259, -0.966, 0.966, 0.259, 0, 291.321)"/></svg>