<svg xmlns="http://www.w3.org/2000/svg" width="398.623" height="362.81" viewBox="0 0 398.623 362.81"><path fill="current" stroke="current" stroke-width="2px" d="M275.287,360.81c43.711-.545,80.389-33.71,100.016-70.6,14.214-26.705,21.152-56.939,21.248-87.172v-1.429a201.444,201.444,0,0,0-5.2-44.691c-14.266-61.35-57.137-108.162-112.36-112.367-22.065-1.687-43.07,4.463-62.875,17.013-18.692,11.858-37.407,6-50.347-14.6a131.4,131.4,0,0,0-17.219-22.338C132.016,7.9,113.4.133,93.129,0H92.091A88.218,88.218,0,0,0,79.482,1.016C61.843,3.69,46.944,13.692,33.863,28.186,6.952,57.962-4.906,104.642,1.87,144.243A109.658,109.658,0,0,0,29.356,200.15a95.07,95.07,0,0,0,15.275,13.235c26.168,18.133,61.291,18.449,90.066,31.448,25.7,12.852,41.745,38.011,56.342,61.741C210,337.4,235.111,360.353,273.1,360.81Z" transform="translate(1.072 1)"/></svg>