<svg xmlns="http://www.w3.org/2000/svg" width="359.957" height="350.345" viewBox="0 0 359.957 350.345"><path fill="current" d="M189.919,248.921c30.156-.376,55.46-23.256,69-48.707a129.1,129.1,0,0,0,14.659-60.139v-.986a138.975,138.975,0,0,0-3.587-30.832c-9.842-42.325-39.419-74.62-77.517-77.522-15.223-1.164-29.714,3.079-43.377,11.737-12.9,8.181-25.807,4.136-34.734-10.076a90.65,90.65,0,0,0-11.88-15.411C91.078,5.452,78.233.091,64.25,0h-.716a60.861,60.861,0,0,0-8.7.7C42.665,2.546,32.386,9.446,23.362,19.445,4.8,39.988-3.384,72.192,1.29,99.513a75.652,75.652,0,0,0,18.962,38.57,65.588,65.588,0,0,0,10.538,9.131c18.053,12.51,42.285,12.728,62.136,21.7,17.733,8.866,28.8,26.223,38.87,42.595,13.079,21.269,30.405,37.1,56.613,37.417Z" transform="translate(0 132.634) rotate(-29)"/></svg>