<svg xmlns="http://www.w3.org/2000/svg" xmlns:xlink="http://www.w3.org/1999/xlink" width="377.447" height="377.374" viewBox="0 0 377.447 377.374"><defs><style>.a{fill:#e3cffd;}.b,.c{opacity:0.473;}.b{clip-path:url(#a);}.c{clip-path:url(#b);}.d{fill:none;stroke:#785ba3;stroke-width:2px;}.e{fill:#785ba3;}.f{fill:#343434;}.g{fill:#423457;}.h{fill:#fff;}.i{fill:#011721;}.j{fill:#f9f5ff;}</style><clipPath id="a"><path class="a" d="M79.178,262.379c22.387-8.085,43.553-41.1,67.579-50.177,25.9-9.785,52.5-4.639,83.7-18.486,43.042-19.094,52.294-102.8,12.929-158.162S145.975.785,120.72,21.934c-32.5,27.222-44.13,75.183-59.237,84.448-14.438,8.85-14.626,2.855-28.084,7.026C-6.28,125.708-4.233,191.621,7.192,217.23c10.052,22.535,28.477,48.205,55.468,48.205a48.57,48.57,0,0,0,16.519-3.056"/></clipPath><clipPath id="b"><path class="a" d="M19.727,65.371c5.578-2.014,10.851-10.24,16.837-12.5,6.453-2.438,13.081-1.156,20.855-4.606C68.143,43.506,70.448,22.651,60.64,8.858S36.369.2,30.077,5.465C21.979,12.247,19.082,24.2,15.318,26.5c-3.6,2.2-3.644.711-7,1.751-9.886,3.064-9.376,19.487-6.53,25.867,2.5,5.615,7.1,12.01,13.82,12.01a12.1,12.1,0,0,0,4.116-.761" transform="translate(0 0)"/></clipPath></defs><g transform="translate(-934.789 -578.447)"><g class="b" transform="matrix(0.719, -0.695, 0.695, 0.719, 934.789, 764.883)"><rect class="a" width="306.067" height="301.693" transform="translate(-14.342 -26.853)"/></g><g class="c" transform="matrix(0.94, 0.342, -0.342, 0.94, 1199.405, 578.627)"><rect class="a" width="76.256" height="75.166" transform="translate(-3.573 -6.69)"/></g><g transform="translate(984.327 612.278)"><path class="d" d="M249.142,354.747c24.26-8.761,47.2-44.54,73.235-54.376,28.07-10.6,56.9-5.027,90.71-20.033,46.644-20.692,56.67-111.406,14.011-171.4S321.529,71.261,294.161,94.181c-35.224,29.5-47.823,81.475-64.194,91.515-15.646,9.59-15.85,3.094-30.434,7.614-43,13.329-40.782,84.758-28.4,112.51,10.893,24.421,30.86,52.239,60.11,52.239a52.634,52.634,0,0,0,17.9-3.312" transform="translate(-149.87 -70.411)"/><path class="e" d="M8203.109,10804.063l.544-1.365.893-.516h1.124l12.45,5.392,1.3.713.2.924-.2,1.134-4.284,12.08-1.139.723-3.051.811-1.169-.279s-10.673-5.478-10.74-5.57-.737-.816-.737-.816v-1.354Z" transform="translate(-8080.068 -10727.398)"/><g transform="translate(0 0.234)"><path class="f" d="M958.407,3146.069l1.873,8.959,28.909-27.407-30.843,17.56Z" transform="translate(-862.714 -2923.058)"/><path class="g" d="M970.81,3329.4l.755,8.315,6.208-5.885Z" transform="translate(-874 -3105.744)"/><path class="e" d="M873.486,3144.4l8.091,1.669,30.782-18.448Z" transform="translate(-785.884 -2923.058)"/><path class="a" d="M970.81,3146.713l14.27,4.981,15.394-24.072Z" transform="translate(-874 -2923.058)"/><path class="f" d="M248.279,3281.488l2.044,8.921,28.38-27.955L248.2,3280.6Z" transform="translate(-218.375 -3067.332)"/><path class="g" d="M260.974,3470.189l.914,8.3,6.094-6Z" transform="translate(-229.939 -3255.411)"/><path class="e" d="M163.2,3279.973l8.121,1.515,30.423-19.033Z" transform="translate(-141.416 -3067.332)"/><path class="a" d="M260.974,3282.11l14.363,4.707,14.93-24.362Z" transform="translate(-229.939 -3067.332)"/><path class="h" d="M1446.365,1797.392a.473.473,0,0,1-.422-.687,4.042,4.042,0,0,1,4.16-2.31.473.473,0,0,1-.158.933,3.081,3.081,0,0,0-3.157,1.8.473.473,0,0,1-.423.26" transform="translate(-1318.698 -1722.188)"/><path class="f" d="M1625.667,2170.176l4.781,44.964L1786.092,2094.7l-160.288,71.08Z" transform="translate(-1481.463 -1994.112)"/><path class="g" d="M1676.592,2931.684l-.4,41.247,33.421-25.862Z" transform="translate(-1527.211 -2751.903)"/><path class="e" d="M1214.054,2157.972l38.946,12.2,160.425-75.477Z" transform="translate(-1108.796 -1994.113)"/><path class="a" d="M1680.384,2173.893l67.688,31.533,87.56-110.727Z" transform="translate(-1531.003 -1994.112)"/><path class="g" d="M1582.9,1152.685c-3.012,23.285-11.342,50.247-20.823,73.363l5.3.652s25.208-24.795,37.053-63.435c10.722,2.337,23.593,5.7,23.593,5.7a208.754,208.754,0,0,0,20.5,36.333l4.243-3.234c-3.742-22.66-7.688-34.993-9.736-40.669a9.718,9.718,0,0,0-4.491-5.233c-8.918-4.876-25-13.392-29.766-15.912" transform="translate(-1404.062 -1074.229)"/><path class="h" d="M1599.071,1096.595s-10.5,1.136-21.995,12.591c0,0-32.447,32.1-36.9,35.964l1.994,2.549s14.513-7.512,36.59-22.589a3.3,3.3,0,0,1,5.151,2.461,124.244,124.244,0,0,1-1.051,25.433h0l26.51-12.445a127.224,127.224,0,0,0,.575-27.708,5.787,5.787,0,0,1,3.737-5.951c9.032-3.366,30.045-12.31,37.693-25.083l-.849-3.135s-18.83,10.976-51.455,17.914" transform="translate(-1404.062 -1074.228)"/><path class="e" d="M1882.515,1323.831s19.188,18.6-12.834,43.524l-5.83.187-.716-6.014s33.4-16.457,19.379-37.7" transform="translate(-1696.463 -1296.183)"/><path class="i" d="M1964.244,1207.359s.385-3.8-3.342-3.246a3.763,3.763,0,0,0-3.345,4.027,5.838,5.838,0,0,1-.369,3.977s-.7,3.9,6.346,3.373l1.2-.691-1.253-5.042Z" transform="translate(-1781.598 -1187.744)"/><path class="j" d="M2012.966,1243.724s-.151-2.061-.134-3.3c.005-.377-1.186-.489-2.087-1.845-.279-.421-1.093-.5-1.488-.911a2.758,2.758,0,0,1-.7,2.563c-.187.176.074,1.554-.149,1.682-1.293.74-1.8,1.722,1.842,3.314l-.716.4Z" transform="translate(-1827.12 -1218.173)"/><path class="h" d="M1702.694,2636.163l-6.958,7.486a.918.918,0,0,0,1.025,1.472l10.944-4.558a1.617,1.617,0,0,0,.9-2.042l-.616-1.707Z" transform="translate(-1544.674 -2484.344)"/><path class="h" d="M2689.458,2382.677l9.784,2.953a.918.918,0,0,1-.142,1.788l-11.749,1.587a1.618,1.618,0,0,1-1.807-1.309l-.329-1.785Z" transform="translate(-2440.758 -2254.842)"/><path class="i" d="M2706.44,1036.071a12.467,12.467,0,0,1,6.69-4.44c.859-.233-1.854,2.639-1.528,3.6a3.405,3.405,0,0,1-.363,3.144,1.028,1.028,0,0,1-.521.273,23.067,23.067,0,0,1-3.43.561Z" transform="translate(-2459.975 -1031.618)"/><path class="i" d="M1498.173,1784.13l-1.755,1.135s.381,3.333-3.056,1.491a3.966,3.966,0,0,1-1.713-3.815,8.932,8.932,0,0,1,4.566-1.318Z" transform="translate(-1360.064 -1710.659)"/><path class="h" d="M1524.466,1813.119a.473.473,0,0,1-.4-.721,2.925,2.925,0,0,0,.483-2.369,3.367,3.367,0,0,0-1.605-1.825.473.473,0,0,1,.416-.85,4.321,4.321,0,0,1,2.1,2.413,3.821,3.821,0,0,1-.586,3.128.474.474,0,0,1-.4.225" transform="translate(-1388.216 -1733.911)"/><path class="h" d="M1357.87,1836.783a2.374,2.374,0,0,1-1.1-.273l-10.556-5.536a2.365,2.365,0,0,1-1.088-3.025l5.233-12.491a2.379,2.379,0,0,1,3.138-1.264l12.445,5.386a2.389,2.389,0,0,1,1.3,2.96l-4.087,11.819a2.377,2.377,0,0,1-1.626,1.518l-3.035.821a2.369,2.369,0,0,1-.623.084m-5.322-21.839a1.434,1.434,0,0,0-1.321.88l-5.233,12.491a1.424,1.424,0,0,0,.656,1.821l10.556,5.536a1.43,1.43,0,0,0,1.039.114l3.035-.821a1.432,1.432,0,0,0,.979-.915l4.087-11.819a1.438,1.438,0,0,0-.784-1.782l-12.446-5.386a1.43,1.43,0,0,0-.569-.119" transform="translate(-1227.292 -1739.97)"/><path class="h" d="M1483.85,1906.156a.473.473,0,0,1-.439-.649l4.818-12.04a.473.473,0,1,1,.879.351l-4.818,12.04a.473.473,0,0,1-.439.3" transform="translate(-1352.635 -1811.651)"/><path class="h" d="M2648.929,2343.078a.473.473,0,0,1-.237-.882l4.27-2.471a.473.473,0,1,1,.473.818l-4.27,2.471a.466.466,0,0,1-.236.064" transform="translate(-2407.477 -2215.896)"/><path class="h" d="M1807.188,2597.731a.477.477,0,0,1-.224-.056l-3.816-2.055a.473.473,0,1,1,.449-.833l3.816,2.055a.473.473,0,0,1-.224.89" transform="translate(-1641.925 -2446.831)"/><path class="h" d="M1906.837,1723.441a.471.471,0,0,1-.309-.115l-4.595-3.952a.473.473,0,1,1,.617-.717l4.595,3.952a.473.473,0,0,1-.309.832" transform="translate(-1731.44 -1653.547)"/><path class="h" d="M1652.452,3440.45a7.471,7.471,0,0,1-.765-.04,7.236,7.236,0,0,1-3.806-12.816l22.363-18.137a.237.237,0,0,1,.3.368l-22.363,18.136a6.762,6.762,0,1,0,9.511.992.236.236,0,1,1,.368-.3,7.236,7.236,0,0,1-5.605,11.793" transform="translate(-1499.149 -3184.424)"/><path class="h" d="M532.54,3470.754a21.255,21.255,0,1,1,16.206-34.99.236.236,0,1,1-.361.305,20.786,20.786,0,1,0-2.427,29.3l.068-.057,65.929-55.843a.236.236,0,1,1,.306.36l-66,55.9a21.17,21.17,0,0,1-13.724,5.028" transform="translate(-472.501 -3184.427)"/><path class="h" d="M1467.956,3203.007a.237.237,0,0,1-.149-.42l51.481-41.632a.237.237,0,0,1,.3.368l-51.481,41.632a.238.238,0,0,1-.149.053" transform="translate(-1338.46 -2959.433)"/><path class="f" d="M1621.9,3901.376l1.859,12.182,40.88-34.721-42.757,21.34Z" transform="translate(-1456.531 -3629.555)"/><path class="g" d="M1637.449,4127.062l.4,11.234,8.778-7.456Z" transform="translate(-1470.625 -3854.293)"/><path class="e" d="M1508.4,3898.537l10.755,2.84,42.739-22.539Z" transform="translate(-1353.79 -3629.556)"/><path class="a" d="M1637.449,3902.323l18.819,7.745,22.465-31.231Z" transform="translate(-1470.625 -3629.555)"/><path class="h" d="M1832.936,4231.448a.236.236,0,0,1-.149-.42l30.368-24.559a.237.237,0,1,1,.3.368l-30.368,24.558a.238.238,0,0,1-.149.053" transform="translate(-1668.906 -3906.023)"/><path class="h" d="M760.051,2953.566a.237.237,0,0,1-.125-.438l33.183-20.6a.237.237,0,0,1,.25.4l-33.183,20.6a.236.236,0,0,1-.125.035" transform="translate(-677.418 -2756.108)"/><path class="h" d="M1227.06,1774.03s4.3-4.43,8.115-6.225a23.548,23.548,0,0,1-12.952.9s-7.739,4.15-8.169,5.328c0,0,8.868,1.4,13.006,0" transform="translate(-1108.796 -1698.148)"/><path class="h" d="M637.432,1847.814s-5.266-3.88-7.7-7.629a24.951,24.951,0,0,1,2.795,13.469s5.464,7.531,6.762,7.813c0,0,.2-9.51-1.861-13.654" transform="translate(-579.765 -1763.68)"/><path class="h" d="M686.223,1381.584s-.8,6.385,3.259,8.813l-.732,8.189a25.251,25.251,0,0,1-6.783-7.7,6.877,6.877,0,0,0-2.128-2.36Z" transform="translate(-625.127 -1348.471)"/><path class="h" d="M1044.891,1618.326l-10.231-9.45a5.463,5.463,0,0,0-2.6,2.533,3.86,3.86,0,0,1-3.075,1.25l7.994,8.92a5.355,5.355,0,0,0,3.849-1.743s2.394-2.337,4.058-1.51" transform="translate(-941.241 -1554.257)"/><path class="h" d="M120.183,1621.1s-3.536,6.679-10.254,7.111c0,0-5.972-5.265-8.329-5.932,0,0,5.658.629,10.726-5.225Z" transform="translate(-101.6 -1561.662)"/></g><g transform="translate(-14.116 130.265)"><path class="a" d="M160.124,101.3h13.111c-2.127,0-4.315-.61-6.557-.61s-4.427.61-6.554.61" transform="translate(-130.863 -100.694)"/><path class="a" d="M159.625,101.66c-.956.8-1.887.8-2.8,1.6H190.48c-.912-.8-1.846-.8-2.8-1.6Z" transform="translate(-137.833 -98.652)"/><path class="a" d="M156.876,102.944c-.616,0-1.217.8-1.8.8h44.564c-.585,0-1.186-.8-1.8-.8Z" transform="translate(-141.538 -95.939)"/><path class="a" d="M153.825,105.568h52.338c-.433-.8-.875-.8-1.329-1.6H155.151c-.455.8-.9.8-1.326,1.6" transform="translate(-144.176 -93.768)"/><path class="a" d="M153.895,105.255c-.349,0-.688.8-1.015.8H211.1c-.327,0-.666-.8-1.012-.8Z" transform="translate(-146.173 -91.055)"/><path class="a" d="M152.926,106.282c-.268.8-.526.8-.775,1.6h62.763c-.249-.8-.5-.8-.775-1.6Z" transform="translate(-147.713 -88.884)"/><path class="a" d="M152.189,107.566c-.2,0-.4.8-.592.8h66.209c-.184,0-.386-.8-.592-.8Z" transform="translate(-148.884 -86.17)"/><path class="a" d="M151.619,108.593c-.153.8-.3.8-.427,1.6h68.731c-.131-.8-.274-.8-.423-1.6Z" transform="translate(-149.741 -84)"/><path class="a" d="M151.193,109.877c-.1,0-.193.8-.274.8h70.434c-.081,0-.171-.8-.274-.8Z" transform="translate(-150.317 -81.286)"/><path class="a" d="M150.9,110.9c-.053.8-.093.8-.131,1.6h71.378c-.037-.8-.081-.8-.134-1.6Z" transform="translate(-150.637 -79.115)"/><path class="a" d="M150.726,112.589a3.222,3.222,0,0,0,.019.4h71.6a4.3,4.3,0,0,0,0-.8h-71.6a3.248,3.248,0,0,0-.019.4" transform="translate(-150.726 -76.403)"/><path class="a" d="M150.768,113.215c.037.8.078.8.131,1.6h71.113c.053-.8.1-.8.134-1.6Z" transform="translate(-150.637 -74.231)"/><path class="a" d="M150.919,114.5c.081,0,.174.8.274.8h69.886c.1,0,.193-.8.274-.8Z" transform="translate(-150.317 -71.519)"/><path class="a" d="M151.193,115.525c.134.8.274.8.423,1.6h67.878c.149-.8.3-.8.43-1.6Z" transform="translate(-149.739 -69.348)"/><path class="a" d="M151.6,116.809c.19,0,.389.8.592.8h65.026c.209,0,.408-.8.595-.8Z" transform="translate(-148.884 -66.635)"/><path class="a" d="M152.15,117.836c.249.8.508.8.775,1.6h61.212c.271-.8.526-.8.778-1.6Z" transform="translate(-147.716 -64.464)"/><path class="a" d="M152.88,119.12c.327,0,.666.8,1.015.8h56.193c.346,0,.685-.8,1.012-.8Z" transform="translate(-146.173 -61.75)"/><path class="a" d="M153.825,120.147c.43.8.872.8,1.326,1.6h49.686c.451-.8.894-.8,1.326-1.6Z" transform="translate(-144.176 -59.58)"/><path class="a" d="M155.073,121.43c.585,0,1.186.8,1.8.8h40.959c.616,0,1.217-.8,1.8-.8Z" transform="translate(-141.538 -56.868)"/><path class="a" d="M156.825,122.458c.912.8,1.846.8,2.8,1.6h28.05c.956-.8,1.893-.8,2.805-1.6Z" transform="translate(-137.835 -54.695)"/><path class="a" d="M173.24,123.485H160.123c2.13.8,4.318.607,6.56.607s4.427.193,6.557-.607" transform="translate(-130.864 -52.525)"/></g></g></g></svg>