<svg xmlns="http://www.w3.org/2000/svg" xmlns:xlink="http://www.w3.org/1999/xlink" width="324.804" height="296.839" viewBox="0 0 324.804 296.839"><defs><style>.a{fill:#fbdbe9;}.b,.f{fill:none;}.c{fill:#d82387;}.d,.e{opacity:0.473;}.d{clip-path:url(#a);}.e{clip-path:url(#b);}.f{stroke:#d82387;stroke-width:2px;}.g{fill:#fff;}.h{fill:#671542;}.i{fill:#861955;}.j{fill:#e2e0e0;}.k{fill:#011721;}.l{fill:#05293c;}.m{fill:#edcad9;}.n{opacity:0.55;}.o{clip-path:url(#c);}.p{clip-path:url(#d);}.q{fill:#fffafc;}.r{clip-path:url(#e);}</style><clipPath id="a"><path class="a" d="M19.727,65.371c5.578-2.014,10.851-10.24,16.837-12.5,6.453-2.438,13.081-1.156,20.855-4.606C68.143,43.506,70.448,22.651,60.64,8.858S36.369.2,30.077,5.465C21.979,12.247,19.082,24.2,15.318,26.5c-3.6,2.2-3.644.711-7,1.751-9.886,3.064-9.376,19.487-6.53,25.867,2.5,5.615,7.1,12.01,13.82,12.01a12.1,12.1,0,0,0,4.116-.761" transform="translate(0 0)"/></clipPath><clipPath id="b"><path class="a" d="M237.171,315.079c20.875-7.539,40.613-38.326,63.017-46.79,24.153-9.125,48.959-4.326,78.054-17.238,40.136-17.805,48.764-95.863,12.056-147.485s-90.841-32.422-114.391-12.7c-30.31,25.385-41.151,70.108-55.238,78.747-13.463,8.252-13.638,2.662-26.188,6.552-37,11.469-35.093,72.933-24.439,96.814,9.374,21.014,26.555,44.951,51.724,44.951a45.291,45.291,0,0,0,15.4-2.85" transform="translate(-163.338 -70.411)"/></clipPath><clipPath id="c"><rect class="b" width="65.787" height="19.734"/></clipPath><clipPath id="d"><rect class="b" width="42.015" height="11.65"/></clipPath><clipPath id="e"><path class="c" d="M99.526,102.991A16.59,16.59,0,1,0,116.118,86.4a16.591,16.591,0,0,0-16.592,16.592" transform="translate(-99.526 -86.399)"/></clipPath></defs><g transform="translate(-630.944 -597.431)"><g class="d" transform="matrix(-0.616, 0.788, -0.788, -0.616, 758.152, 638.146)"><rect class="a" width="76.256" height="75.166" transform="translate(-3.573 -6.69)"/></g><g class="e" transform="translate(669.178 612.589)"><rect class="a" width="285.405" height="281.328" transform="translate(-13.374 -25.04)"/></g><g transform="translate(632 612.589)"><path class="a" d="M3679.764,2016.789a79.487,79.487,0,0,1,4.577-17.64l5.062,3.316-3.612-7.072c3.1-7.732,6.744-15.292,9.638-23.072a78.452,78.452,0,0,0,3.992-15.013l2.732,3.6-2.434-5.6a60.354,60.354,0,0,0-2.869-28.308c-1.808-5.074-6.611-13.126-3.9-18.554,1.622-3.25,5.61-3.136,8.1-.595,11.757,11.987,13.894,32.9,13.125,50.682q-.234,5.416-.085,10.845l-6.036,6.875,6.152-3.5a126.141,126.141,0,0,0,3.47,24.21,94.68,94.68,0,0,0,3.313,10.172l-7.741,12.095,10.044-5.882c2.236,6.229,4.051,12.537,3.594,19.2-.517,7.529-4.274,15.153-10.9,18.758-9.106,4.952-20.759,1.619-28.071-5.419a24.689,24.689,0,0,1-4.614-6c-3.769-6.963-4.526-15.245-3.536-23.1" transform="translate(-3471.831 -1779.328)"/><path class="a" d="M908.006,3621.586c4.821,0,10.439-7.066,5.751-10.851a10.137,10.137,0,0,0-5.235-1.791,41.733,41.733,0,0,0-14.267.724c-4.883,1.108-9.582,3.1-14.565,3.6-6.11.611-12.243-1.074-17.886-3.5-7.768-3.333-14.9-8.02-22.808-11.073-6.5-2.509-13.706-3.86-20.444-2.1-5.558,1.454-10.762,5.389-12.924,10.815-2.194,5.505,1.521,12.12,6.914,14.17Z" transform="translate(-752.534 -3369.108)"/><path class="a" d="M1136.882,2783.027a51.014,51.014,0,0,0-2.937-11.32l-3.249,2.128,2.318-4.539c-1.987-4.962-4.328-9.814-6.185-14.807a50.346,50.346,0,0,1-2.562-9.635l-1.753,2.311,1.562-3.592a38.73,38.73,0,0,1,1.841-18.167c1.16-3.257,4.243-8.424,2.5-11.907-1.041-2.086-3.6-2.012-5.2-.382-7.545,7.693-8.916,21.115-8.424,32.525q.15,3.476.055,6.96l3.874,4.412-3.949-2.249a80.922,80.922,0,0,1-2.227,15.537,60.749,60.749,0,0,1-2.126,6.528l4.968,7.762-6.446-3.774c-1.435,4-2.6,8.045-2.307,12.321.332,4.832,2.743,9.724,7,12.038,5.844,3.177,13.322,1.039,18.015-3.479a15.85,15.85,0,0,0,2.961-3.848c2.419-4.469,2.9-9.784,2.269-14.825" transform="translate(-1025.575 -2568.938)"/><path class="a" d="M1540.874,3304.576c-.092-.546-.2-1.085-.335-1.608a21.544,21.544,0,0,1,.148-10.688,15.652,15.652,0,0,0-.178-8.217l-4.8,4.087,4.076-6.013c-1.7-3.657-4.811-6.116-8.381-6.116-5.384,0-9.749,5.577-9.749,12.456q0,.323.013.641a19.368,19.368,0,0,1-.612,5.542l5.863,7.128-6.615-4.725a25.863,25.863,0,0,1-1.106,2.529,18.334,18.334,0,0,0-1.876,8.2c0,8.408,5.334,15.225,11.915,15.225,6.481,0,11.75-6.614,11.908-14.848l-8.922,4.375Z" transform="translate(-1397.399 -3079.616)"/><path class="f" d="M214.151,280.681c34-.424,62.536-26.223,77.8-54.921,11.058-20.775,16.455-44.294,16.529-67.812v-1.111a156.706,156.706,0,0,0-4.045-34.766c-11.1-47.725-44.448-84.141-87.407-87.413-17.165-1.312-33.505,3.472-48.911,13.235-14.541,9.224-29.1,4.664-39.166-11.361a102.215,102.215,0,0,0-13.4-17.377C102.7,6.148,88.214.1,72.447,0h-.808a68.626,68.626,0,0,0-9.809.791c-13.722,2.08-25.312,9.86-35.488,21.136C5.408,45.09-3.816,81.4,1.455,112.209A85.3,85.3,0,0,0,22.837,155.7,73.956,73.956,0,0,0,34.719,166c20.356,14.106,47.68,14.352,70.064,24.464,20,10,32.474,29.569,43.829,48.029,14.747,23.983,34.284,41.836,63.836,42.191Z" transform="translate(0 0)"/><g transform="translate(78.178 19.391)"><path class="g" d="M1964.265,1838.741s-8.725,14.588-21.878,17.927c0,0-8.844-2.007-30.821-20.776l3.509-1.355s20.14,11.9,26.817,12.167a214.552,214.552,0,0,0,15.247-18.145Z" transform="translate(-1869.247 -1788.641)"/><path class="h" d="M2333.383,2467.713s1.41,58.6,62.348,119.456l3.737-6.619s-43.854-72.666-39-113.6Z" transform="translate(-2251.112 -2366.569)"/><path class="i" d="M1904.324,2423.907a65.776,65.776,0,0,1-3.419,6.437,115.847,115.847,0,0,0-6.32,11.839c-8.124,17.818-27.209,63.685-32.95,112.679l7.047.473a455.167,455.167,0,0,1,21.838-51.627c7.9-15.946,19.948-29.539,32.088-42.549,7.471-8.007,18.45-22.49,12.716-35.173Z" transform="translate(-1824.045 -2327.601)"/><path class="c" d="M1789.573,1627.7l-7.649,15.406a.837.837,0,0,1-1.122.377l-153.354-76.124,8.393-16.9,153.323,76.126a.847.847,0,0,1,.408,1.119" transform="translate(-1612.041 -1536.881)"/><path class="g" d="M1480.174,1555.108l-15.409-18.187,23.8,1.282Z" transform="translate(-1464.765 -1524.626)"/><path class="i" d="M1631.646,1639.7l-4.2,8.452,147.663,73.338a9.437,9.437,0,0,0,12.649-4.256h0Z" transform="translate(-1612.041 -1617.667)"/><path class="j" d="M1627.45,1702.007l2.551-.49-1.152-2.328Z" transform="translate(-1612.041 -1671.524)"/><path class="j" d="M1642.219,1672.261l2.551-.49-1.152-2.328Z" transform="translate(-1625.412 -1644.596)"/><path class="j" d="M1656.988,1642.515l2.551-.49-1.152-2.328Z" transform="translate(-1638.782 -1617.668)"/><path class="g" d="M1671.758,1612.769l2.551-.49-1.152-2.328Z" transform="translate(-1652.152 -1590.739)"/><path class="g" d="M1686.527,1583.023l2.551-.49-1.152-2.328Z" transform="translate(-1665.523 -1563.81)"/><path class="g" d="M1701.3,1553.276l2.551-.49-1.152-2.328Z" transform="translate(-1678.894 -1536.88)"/><path class="a" d="M1484.37,1546.657l-19.605-9.734,15.409,18.187Z" transform="translate(-1464.765 -1524.626)"/><path class="k" d="M1475.8,1542.4l-11.031-5.477,8.669,10.232Z" transform="translate(-1464.765 -1524.626)"/><path class="l" d="M1475.8,1542.4l-11.031-5.477,13.392.721Z" transform="translate(-1464.766 -1524.625)"/><path class="a" d="M3191.185,2414.035l-4.2,8.452,9.372,4.653a9.437,9.437,0,0,0,12.649-4.255h0Z" transform="translate(-3023.868 -2318.663)"/><path class="a" d="M2344.825,1548.327c1.843-8.109-1.032-18.789-5.085-25.493-.491-.812-.953-4.443,1.352-8.981a1.721,1.721,0,0,0-.28-2c-.462-.452-1.18-.545-2.2.9,0,0-1.587-5.613-8.185-4.286l-2.76,6.8,2.652,4.141,4.485-.207s.132,1.72-1.99,3.416c-.826.66-7.352,5.682-12.479,10.449-3.234,3.007-5.146,5.471-4.606,8.607,2.525,14.677,3.792,31.62-1.63,47.591q-.98,2.885-2.26,5.723a36.9,36.9,0,0,1,14.166,4.677l4.373,2.518a22.966,22.966,0,0,0,16.144,2.581h0c1.187-.247.976-1.371.683-2.547-6.131-24.529-3.736-47.924-2.38-53.888" transform="translate(-2231.609 -1498.683)"/><path class="k" d="M2484.664,1410.7a10.99,10.99,0,0,0,3.542.116c2.028-.265,3.426-1.672,5.211-2.463a7.372,7.372,0,0,1,5.827.294c2.3,1.024,4.206,2.761,6.356,4.076a19.7,19.7,0,0,0,14.256,2.427c7.569-1.626,13.9-7.674,21.637-8.037a17.2,17.2,0,0,1,12.906,5.363,22.013,22.013,0,0,1,5.8,12.9,19.523,19.523,0,0,1-1.53,10.445,13.312,13.312,0,0,1-7.656,7.037,10.149,10.149,0,0,1-9.977-2.037c-1.8-1.72-2.79-4.1-3.933-6.31a16.478,16.478,0,0,0-5.417-6.605,8.439,8.439,0,0,0-4.7-1.387,9.6,9.6,0,0,0-6.144,2.833c-2.39,2.252-3.784,5.237-6.239,7.433a8.818,8.818,0,0,1-7.742,2.417c-2.574-.525-4.745-2.217-6.663-4.011a109.327,109.327,0,0,1-9.245-10.358,27.83,27.83,0,0,1-5.957-11.111c-.058-.246-.387-3.036-.333-3.025" transform="translate(-2388.059 -1407.099)"/><path class="k" d="M1871.09,1850.218l-.4-.51-7.707-3.826,1.18,3.377a2.99,2.99,0,0,0,1.964,1.878l1.458.437Z" transform="translate(-1825.262 -1804.322)"/><path class="g" d="M2713.741,2277.572l-34.209.3a.187.187,0,0,1-.188-.185l-.167-19.04a.186.186,0,0,1,.185-.188l34.209-.3a.186.186,0,0,1,.188.185l.167,19.04a.187.187,0,0,1-.185.188" transform="translate(-2564.154 -2177.551)"/><path class="c" d="M2825.484,2321.252a4.336,4.336,0,1,0-4.782,3.838,4.336,4.336,0,0,0,4.782-3.838" transform="translate(-2688.776 -2230.316)"/><path class="a" d="M2518.215,1678.679s11.412,14.394,25.8,66.222l-3.723,1.753s-14.241-38.811-32.282-47.363Z" transform="translate(-2409.198 -1652.956)"/><path class="k" d="M2836.8,2379.608l-1.243,5.911a.833.833,0,0,0,.759,1l3.613.242a2.783,2.783,0,0,0,2.988-2.561c.084-1.419-.413-3.479-2.4-6.348Z" transform="translate(-2705.706 -2285.911)"/><path class="g" d="M2942.989,3652.73l-4.973,8.04a1.732,1.732,0,0,0,2.713,1.955l10.6-8.614a2.819,2.819,0,0,0-.034-4.4L2945.48,3644Z" transform="translate(-2798.37 -3432.13)"/><path class="g" d="M2942.533,3627.635a.49.49,0,0,1-.118-.015.474.474,0,0,1-.341-.576l1.581-6.17a.474.474,0,0,1,.918.235l-1.581,6.17a.474.474,0,0,1-.459.356" transform="translate(-2802.137 -3410.874)"/><path class="g" d="M2917.045,3607.632a.473.473,0,0,1-.459-.591l1.582-6.17a.474.474,0,1,1,.917.235l-1.582,6.17a.474.474,0,0,1-.459.356" transform="translate(-2779.063 -3392.765)"/><path class="l" d="M2533.733,1914.8a.474.474,0,0,1-.4-.226,48.816,48.816,0,0,0-13.8-13.833.474.474,0,0,1,.507-.8,49.856,49.856,0,0,1,14.1,14.138.474.474,0,0,1-.157.651.467.467,0,0,1-.247.07" transform="translate(-2419.425 -1853.198)"/><path class="h" d="M1922.608,2762.808c1.536-1.646,3.221-3.57,4.878-5.692-23.1,3.417-47.039,27.763-59.076,62.2a315.092,315.092,0,0,0-6.774,37.191l7.047.473a455.209,455.209,0,0,1,21.838-51.626c7.9-15.945,19.948-29.539,32.088-42.549" transform="translate(-1824.045 -2629.25)"/><path class="g" d="M1867.8,3706.821a.474.474,0,0,1-.111-.934l6.21-1.508a.474.474,0,0,1,.224.921l-6.21,1.508a.527.527,0,0,1-.113.013" transform="translate(-1829.194 -3486.783)"/><path class="g" d="M1874.612,3663.066a.474.474,0,0,1-.112-.934l5.842-1.428a.473.473,0,1,1,.225.919l-5.842,1.428a.473.473,0,0,1-.113.014" transform="translate(-1835.365 -3447.242)"/><path class="m" d="M2330.378,2070.007a22.964,22.964,0,0,0,16.144,2.581c1.187-.247.977-1.371.683-2.547a144.44,144.44,0,0,1-3.564-45h0s-17.416,3.466-29.371,31.507c-.06.181-.109.364-.171.546q-.98,2.885-2.26,5.723a36.9,36.9,0,0,1,14.166,4.677Z" transform="translate(-2231.608 -1966.509)"/><g class="n" transform="translate(106.425 0.778)"><g class="o"><path class="g" d="M2639.161,1435.045a23.06,23.06,0,0,1-3.819-.327,41.713,41.713,0,0,1-17.22-7.348l-.07-.05a5.123,5.123,0,0,0-2.683-1.245c-1.282-.05-2.261.761-3.3,1.608a6.973,6.973,0,0,1-2.772,1.625,12.021,12.021,0,0,1-8.75-1.686,14.467,14.467,0,0,1-4.808-5.177c-1.277-2.274-3.917-6.194-7.244-6.9a.118.118,0,0,1-.091-.14.119.119,0,0,1,.141-.091c3.418.723,6.1,4.705,7.4,7.014a14.236,14.236,0,0,0,4.727,5.093,11.771,11.771,0,0,0,8.574,1.655,6.808,6.808,0,0,0,2.673-1.577,5.552,5.552,0,0,1,3.369-1.662h.091a5.3,5.3,0,0,1,2.815,1.289l.07.05a41.482,41.482,0,0,0,17.12,7.307c7.867,1.319,14.642-1.442,18.586-7.579a.119.119,0,0,1,.2.128,17.228,17.228,0,0,1-15.006,8.012" transform="translate(-2588.399 -1415.312)"/></g></g><g class="n" transform="translate(127.136 21.384)"><g class="p"><path class="g" d="M2842.281,1644.518a16.451,16.451,0,0,1-6.891-1.6c-.238-.11-.473-.226-.706-.345l-.256-.133a18.717,18.717,0,0,1-3.52-2.312c-.584-.5-1.148-1.036-1.694-1.554-.435-.414-.884-.841-1.34-1.246-.428-.38-.833-.716-1.239-1.026a14.646,14.646,0,0,0-8-3.183,10.25,10.25,0,0,0-4.912,1.008,13.129,13.129,0,0,0-3.552,2.569,17.144,17.144,0,0,0-2.155,2.64,12.171,12.171,0,0,0-.723,1.208.118.118,0,1,1-.211-.107,12.454,12.454,0,0,1,.736-1.233,17.343,17.343,0,0,1,2.187-2.676,13.339,13.339,0,0,1,3.617-2.615,10.562,10.562,0,0,1,5.025-1.031,14.888,14.888,0,0,1,8.131,3.232c.409.313.819.652,1.251,1.037.459.407.91.836,1.346,1.251.544.517,1.105,1.051,1.685,1.546a18.476,18.476,0,0,0,3.478,2.283l.252.131q.347.177.7.342a16.177,16.177,0,0,0,7.1,1.577,15.126,15.126,0,0,0,6.329-1.591.118.118,0,1,1,.1.213,15.366,15.366,0,0,1-6.427,1.615c-.1,0-.207,0-.312,0" transform="translate(-2807.071 -1632.868)"/></g></g><path class="g" d="M1777.16,3771.795l-7.871,1.587a1.732,1.732,0,0,0,.646,3.281l13.626.951a2.819,2.819,0,0,0,2.982-3.238l-.89-6.215Z" transform="translate(-1739.571 -3544.533)"/><path class="g" d="M3191.277,2428.342l-4.239-8.511,9.372-4.653a9.437,9.437,0,0,1,12.649,4.255h0Z" transform="matrix(0.602, 0.799, -0.799, 0.602, 186.088, -3914.659)"/><path class="q" d="M2339.74,1522.834c-.491-.812-.953-4.443,1.352-8.981a1.721,1.721,0,0,0-.28-2c-.462-.452-1.18-.545-2.2.9,0,0-1.587-5.613-8.185-4.286l-2.76,6.8,2.652,4.141,4.485-.207s.132,1.72-1.99,3.416" transform="translate(-2231.609 -1498.684)"/></g><g class="r" transform="translate(290.567 153.574)"><rect class="c" width="33.181" height="33.182" transform="translate(0 0)"/></g></g></g></svg>