<svg xmlns="http://www.w3.org/2000/svg" width="66.002" height="51.384" viewBox="0 0 66.002 51.384">
  <g id="Group_88" data-name="Group 88" transform="translate(0 0)">
    <path id="Path_304" data-name="Path 304" d="M1007.707,1105.156H974.179a6.976,6.976,0,0,1-4.934-2.044l-2.452-2.451a3.155,3.155,0,0,0-2.232-.925h-6.323a38.62,38.62,0,0,1,13.419,7.949h34.823v1.808H980.992a1.623,1.623,0,0,0-1.6,1.642v.692a.708.708,0,0,1-.7.717h-29.5v33.4a1.454,1.454,0,0,0,1.455,1.455h57.044a1.475,1.475,0,0,0,1.2-.612l.28-3.024V1106.61a1.454,1.454,0,0,0-1.455-1.454" transform="translate(-946.172 -1099.735)" fill="#694998"/>
    <path id="Path_305" data-name="Path 305" d="M1097.772,1441.61v36.3h-54.613v-33.25h26.82a.708.708,0,0,0,.7-.716v-.692a1.623,1.623,0,0,1,1.6-1.642Z" transform="translate(-1037.465 -1431.854)" fill="#fff"/>
    <path id="Path_306" data-name="Path 306" d="M909.611,1443.441l-1.114,12.023-1.891,20.411-.28,3.024-.259,2.79a1.686,1.686,0,0,1-1.663,1.548H848.572a1.686,1.686,0,0,1-1.663-1.548L845.2,1463.28l-1.58-17.05a1.423,1.423,0,0,1,1.4-1.57h31.112a.708.708,0,0,0,.7-.716v-.692a1.623,1.623,0,0,1,1.6-1.642h29.547a1.658,1.658,0,0,1,1.627,1.831" transform="translate(-843.616 -1431.854)" fill="#785ba3"/>
    <path id="Path_307" data-name="Path 307" d="M1128.145,1927.062l-1.891,20.411-.28,3.024-.259,2.79a1.686,1.686,0,0,1-1.663,1.548h-54.335a88,88,0,0,0,20.709-3.726q2.331-.723,4.664-1.6,2.945-1.111,5.885-2.484a87.455,87.455,0,0,0,22.6-15.407q1.375-1.282,2.682-2.6.963-.97,1.891-1.955" transform="translate(-1063.265 -1903.452)" fill="#694998"/>
    <path id="Path_308" data-name="Path 308" d="M971.656,1107.684h-19.79v4.858h-2.682v-11.363a1.443,1.443,0,0,1,1.443-1.443h7.61a38.622,38.622,0,0,1,13.419,7.949" transform="translate(-946.171 -1099.735)" fill="#785ba3"/>
    <path id="Path_309" data-name="Path 309" d="M856.357,1548.495a12.777,12.777,0,0,0-1.871.914,15.568,15.568,0,0,0-5.175,5.263,26.509,26.509,0,0,0-2.682,5.947,36.9,36.9,0,0,0-1.427,6.5l-1.58-17.05a1.423,1.423,0,0,1,1.4-1.57Z" transform="translate(-843.615 -1535.688)" fill="#694998"/>
  </g>
</svg>
